<mxfile host="Electron" agent="Mozilla/5.0 (Windows NT 10.0; Win64; x64) AppleWebKit/537.36 (KHTML, like Gecko) draw.io/24.7.5 Chrome/126.0.6478.183 Electron/31.3.0 Safari/537.36" version="24.7.5">
  <diagram name="Page-1" id="qt7wbzUi4W3zAbp0j4qu">
    <mxGraphModel dx="1418" dy="820" grid="1" gridSize="10" guides="1" tooltips="1" connect="1" arrows="1" fold="1" page="1" pageScale="1" pageWidth="827" pageHeight="1169" math="0" shadow="0">
      <root>
        <mxCell id="0" />
        <mxCell id="1" parent="0" />
        <mxCell id="g9-zvi1oiFgz5YpsBdWm-2" value="Front End" style="text;html=1;align=center;verticalAlign=middle;whiteSpace=wrap;rounded=0;" vertex="1" parent="1">
          <mxGeometry x="250" y="80" width="60" height="30" as="geometry" />
        </mxCell>
        <mxCell id="g9-zvi1oiFgz5YpsBdWm-3" value="" style="endArrow=none;html=1;rounded=0;" edge="1" parent="1">
          <mxGeometry width="50" height="50" relative="1" as="geometry">
            <mxPoint x="520" y="1680" as="sourcePoint" />
            <mxPoint x="519.5" y="120" as="targetPoint" />
          </mxGeometry>
        </mxCell>
        <mxCell id="g9-zvi1oiFgz5YpsBdWm-5" value="Auth GW" style="text;html=1;align=center;verticalAlign=middle;whiteSpace=wrap;rounded=0;" vertex="1" parent="1">
          <mxGeometry x="490" y="80" width="60" height="30" as="geometry" />
        </mxCell>
        <mxCell id="g9-zvi1oiFgz5YpsBdWm-6" value="" style="endArrow=none;html=1;rounded=0;entryX=0.5;entryY=1;entryDx=0;entryDy=0;" edge="1" parent="1">
          <mxGeometry width="50" height="50" relative="1" as="geometry">
            <mxPoint x="280" y="1680" as="sourcePoint" />
            <mxPoint x="280" y="120" as="targetPoint" />
          </mxGeometry>
        </mxCell>
        <mxCell id="g9-zvi1oiFgz5YpsBdWm-7" value="User" style="shape=umlActor;verticalLabelPosition=bottom;verticalAlign=top;html=1;outlineConnect=0;" vertex="1" parent="1">
          <mxGeometry x="40" y="40" width="80" height="80" as="geometry" />
        </mxCell>
        <mxCell id="g9-zvi1oiFgz5YpsBdWm-9" value="username, password" style="endArrow=classic;html=1;rounded=0;" edge="1" parent="1">
          <mxGeometry width="50" height="50" relative="1" as="geometry">
            <mxPoint x="80" y="200" as="sourcePoint" />
            <mxPoint x="310" y="200" as="targetPoint" />
          </mxGeometry>
        </mxCell>
        <mxCell id="g9-zvi1oiFgz5YpsBdWm-11" value="" style="endArrow=none;html=1;rounded=0;" edge="1" parent="1">
          <mxGeometry width="50" height="50" relative="1" as="geometry">
            <mxPoint x="84.72" y="800" as="sourcePoint" />
            <mxPoint x="79.99777777777783" y="120" as="targetPoint" />
          </mxGeometry>
        </mxCell>
        <mxCell id="g9-zvi1oiFgz5YpsBdWm-16" value="" style="endArrow=classic;html=1;rounded=0;" edge="1" parent="1">
          <mxGeometry width="50" height="50" relative="1" as="geometry">
            <mxPoint x="280" y="360" as="sourcePoint" />
            <mxPoint x="520" y="360" as="targetPoint" />
          </mxGeometry>
        </mxCell>
        <mxCell id="g9-zvi1oiFgz5YpsBdWm-17" value="username, half nonce" style="edgeLabel;html=1;align=center;verticalAlign=middle;resizable=0;points=[];" vertex="1" connectable="0" parent="g9-zvi1oiFgz5YpsBdWm-16">
          <mxGeometry x="-0.1" y="2" relative="1" as="geometry">
            <mxPoint as="offset" />
          </mxGeometry>
        </mxCell>
        <mxCell id="g9-zvi1oiFgz5YpsBdWm-18" value="" style="endArrow=classic;html=1;rounded=0;" edge="1" parent="1">
          <mxGeometry width="50" height="50" relative="1" as="geometry">
            <mxPoint x="520" y="640" as="sourcePoint" />
            <mxPoint x="280" y="640" as="targetPoint" />
          </mxGeometry>
        </mxCell>
        <mxCell id="g9-zvi1oiFgz5YpsBdWm-19" value="full nonce, salt" style="edgeLabel;html=1;align=center;verticalAlign=middle;resizable=0;points=[];" vertex="1" connectable="0" parent="g9-zvi1oiFgz5YpsBdWm-18">
          <mxGeometry x="0.5" y="4" relative="1" as="geometry">
            <mxPoint x="40" as="offset" />
          </mxGeometry>
        </mxCell>
        <mxCell id="g9-zvi1oiFgz5YpsBdWm-31" style="edgeStyle=orthogonalEdgeStyle;rounded=0;orthogonalLoop=1;jettySize=auto;html=1;entryX=1;entryY=0.5;entryDx=0;entryDy=0;" edge="1" parent="1" source="g9-zvi1oiFgz5YpsBdWm-20" target="g9-zvi1oiFgz5YpsBdWm-27">
          <mxGeometry relative="1" as="geometry" />
        </mxCell>
        <mxCell id="g9-zvi1oiFgz5YpsBdWm-35" value="user_id, full_name, salt, salted password" style="edgeLabel;html=1;align=center;verticalAlign=middle;resizable=0;points=[];" vertex="1" connectable="0" parent="g9-zvi1oiFgz5YpsBdWm-31">
          <mxGeometry x="0.1867" y="3" relative="1" as="geometry">
            <mxPoint x="19" y="-3" as="offset" />
          </mxGeometry>
        </mxCell>
        <mxCell id="g9-zvi1oiFgz5YpsBdWm-20" value="user" style="shape=cylinder3;whiteSpace=wrap;html=1;boundedLbl=1;backgroundOutline=1;size=15;" vertex="1" parent="1">
          <mxGeometry x="920" y="550" width="60" height="80" as="geometry" />
        </mxCell>
        <mxCell id="g9-zvi1oiFgz5YpsBdWm-27" value="&lt;ul&gt;&lt;li&gt;get salt, and salted passsword from db for the username&lt;/li&gt;&lt;li&gt;generate nonce1 (&lt;span style=&quot;text-align: center;&quot;&gt;random 8 alphanumeric lowercase characters&lt;/span&gt;)&lt;/li&gt;&lt;li&gt;full nonce = half nonce + nonce1&lt;/li&gt;&lt;li&gt;challenge_response = hmac-sha256(key=salted password, message = full nonce) in base64&lt;/li&gt;&lt;div&gt;&lt;br&gt;&lt;/div&gt;&lt;/ul&gt;" style="rounded=0;whiteSpace=wrap;html=1;align=left;" vertex="1" parent="1">
          <mxGeometry x="400" y="400" width="240" height="160" as="geometry" />
        </mxCell>
        <mxCell id="g9-zvi1oiFgz5YpsBdWm-28" value="&lt;ul&gt;&lt;li&gt;generate half nonce (random 8 alphanumeric lowercase characters)&amp;nbsp;&lt;/li&gt;&lt;/ul&gt;" style="rounded=0;whiteSpace=wrap;html=1;align=left;" vertex="1" parent="1">
          <mxGeometry x="160" y="240" width="200" height="80" as="geometry" />
        </mxCell>
        <mxCell id="g9-zvi1oiFgz5YpsBdWm-29" value="&lt;ul&gt;&lt;li&gt;salted password = hmac-sha256(key=password, message=salt) in base64&lt;/li&gt;&lt;li&gt;challenge_response = hmac-sha256(key=salted password, message = full nonce) in base64&lt;/li&gt;&lt;/ul&gt;&lt;div&gt;&lt;br&gt;&lt;/div&gt;" style="rounded=0;whiteSpace=wrap;html=1;align=left;" vertex="1" parent="1">
          <mxGeometry x="150" y="690" width="320" height="110" as="geometry" />
        </mxCell>
        <mxCell id="g9-zvi1oiFgz5YpsBdWm-32" value="" style="endArrow=classic;html=1;rounded=0;" edge="1" parent="1">
          <mxGeometry width="50" height="50" relative="1" as="geometry">
            <mxPoint x="280" y="840" as="sourcePoint" />
            <mxPoint x="520" y="840" as="targetPoint" />
          </mxGeometry>
        </mxCell>
        <mxCell id="g9-zvi1oiFgz5YpsBdWm-33" value="full nonce, challenge response" style="edgeLabel;html=1;align=center;verticalAlign=middle;resizable=0;points=[];" vertex="1" connectable="0" parent="g9-zvi1oiFgz5YpsBdWm-32">
          <mxGeometry x="-0.39" relative="1" as="geometry">
            <mxPoint x="29" as="offset" />
          </mxGeometry>
        </mxCell>
        <mxCell id="g9-zvi1oiFgz5YpsBdWm-41" value="" style="edgeStyle=orthogonalEdgeStyle;rounded=0;orthogonalLoop=1;jettySize=auto;html=1;" edge="1" parent="1" source="g9-zvi1oiFgz5YpsBdWm-34" target="g9-zvi1oiFgz5YpsBdWm-40">
          <mxGeometry relative="1" as="geometry" />
        </mxCell>
        <mxCell id="g9-zvi1oiFgz5YpsBdWm-34" value="verify challenge response" style="rounded=0;whiteSpace=wrap;html=1;" vertex="1" parent="1">
          <mxGeometry x="440" y="880" width="160" height="80" as="geometry" />
        </mxCell>
        <mxCell id="g9-zvi1oiFgz5YpsBdWm-39" style="edgeStyle=orthogonalEdgeStyle;rounded=0;orthogonalLoop=1;jettySize=auto;html=1;entryX=1;entryY=0.5;entryDx=0;entryDy=0;exitX=0.5;exitY=1;exitDx=0;exitDy=0;exitPerimeter=0;" edge="1" parent="1" source="g9-zvi1oiFgz5YpsBdWm-36" target="g9-zvi1oiFgz5YpsBdWm-34">
          <mxGeometry relative="1" as="geometry" />
        </mxCell>
        <mxCell id="g9-zvi1oiFgz5YpsBdWm-36" value="challenge_response" style="shape=cylinder3;whiteSpace=wrap;html=1;boundedLbl=1;backgroundOutline=1;size=15;" vertex="1" parent="1">
          <mxGeometry x="800" y="640" width="60" height="80" as="geometry" />
        </mxCell>
        <mxCell id="g9-zvi1oiFgz5YpsBdWm-37" style="edgeStyle=orthogonalEdgeStyle;rounded=0;orthogonalLoop=1;jettySize=auto;html=1;exitX=0.75;exitY=1;exitDx=0;exitDy=0;entryX=-0.017;entryY=0.588;entryDx=0;entryDy=0;entryPerimeter=0;" edge="1" parent="1" source="g9-zvi1oiFgz5YpsBdWm-27" target="g9-zvi1oiFgz5YpsBdWm-36">
          <mxGeometry relative="1" as="geometry">
            <mxPoint x="580" y="620" as="sourcePoint" />
          </mxGeometry>
        </mxCell>
        <mxCell id="g9-zvi1oiFgz5YpsBdWm-38" value="full_nonce, challenge_response" style="edgeLabel;html=1;align=center;verticalAlign=middle;resizable=0;points=[];" vertex="1" connectable="0" parent="g9-zvi1oiFgz5YpsBdWm-37">
          <mxGeometry x="0.2024" relative="1" as="geometry">
            <mxPoint as="offset" />
          </mxGeometry>
        </mxCell>
        <mxCell id="g9-zvi1oiFgz5YpsBdWm-42" style="edgeStyle=orthogonalEdgeStyle;rounded=0;orthogonalLoop=1;jettySize=auto;html=1;" edge="1" parent="1" source="g9-zvi1oiFgz5YpsBdWm-40">
          <mxGeometry relative="1" as="geometry">
            <mxPoint x="280" y="1040" as="targetPoint" />
          </mxGeometry>
        </mxCell>
        <mxCell id="g9-zvi1oiFgz5YpsBdWm-43" value="http status 401" style="edgeLabel;html=1;align=center;verticalAlign=middle;resizable=0;points=[];" vertex="1" connectable="0" parent="g9-zvi1oiFgz5YpsBdWm-42">
          <mxGeometry x="-0.0524" y="2" relative="1" as="geometry">
            <mxPoint as="offset" />
          </mxGeometry>
        </mxCell>
        <mxCell id="g9-zvi1oiFgz5YpsBdWm-46" value="y" style="edgeStyle=orthogonalEdgeStyle;rounded=0;orthogonalLoop=1;jettySize=auto;html=1;" edge="1" parent="1" source="g9-zvi1oiFgz5YpsBdWm-40" target="g9-zvi1oiFgz5YpsBdWm-44">
          <mxGeometry relative="1" as="geometry" />
        </mxCell>
        <mxCell id="g9-zvi1oiFgz5YpsBdWm-40" value="valid?" style="rhombus;whiteSpace=wrap;html=1;" vertex="1" parent="1">
          <mxGeometry x="480" y="1000" width="80" height="80" as="geometry" />
        </mxCell>
        <mxCell id="g9-zvi1oiFgz5YpsBdWm-44" value="&lt;div style=&quot;text-align: left;&quot;&gt;&lt;ul&gt;&lt;li&gt;&lt;span style=&quot;background-color: initial;&quot;&gt;generate session id - 16 random alphanumeric lowercase characters&lt;/span&gt;&lt;/li&gt;&lt;li&gt;generate nonce2 = 8&amp;nbsp;&lt;span style=&quot;background-color: initial;&quot;&gt;random alphanumeric lowercase characters&lt;/span&gt;&lt;/li&gt;&lt;li&gt;&lt;span style=&quot;background-color: initial;&quot;&gt;session secret = hmac-sha256(key=salted password, message = full nonce + nonce2&lt;/span&gt;&lt;/li&gt;&lt;/ul&gt;&lt;/div&gt;&lt;div style=&quot;text-align: left;&quot;&gt;&lt;span style=&quot;background-color: initial;&quot;&gt;&lt;br&gt;&lt;/span&gt;&lt;/div&gt;" style="rounded=0;whiteSpace=wrap;html=1;" vertex="1" parent="1">
          <mxGeometry x="360" y="1120" width="320" height="120" as="geometry" />
        </mxCell>
        <mxCell id="g9-zvi1oiFgz5YpsBdWm-45" value="session" style="shape=cylinder3;whiteSpace=wrap;html=1;boundedLbl=1;backgroundOutline=1;size=15;" vertex="1" parent="1">
          <mxGeometry x="800" y="1280" width="60" height="120" as="geometry" />
        </mxCell>
        <mxCell id="g9-zvi1oiFgz5YpsBdWm-47" value="n" style="text;html=1;align=center;verticalAlign=middle;whiteSpace=wrap;rounded=0;" vertex="1" parent="1">
          <mxGeometry x="440" y="1010" width="60" height="30" as="geometry" />
        </mxCell>
        <mxCell id="g9-zvi1oiFgz5YpsBdWm-48" style="edgeStyle=orthogonalEdgeStyle;rounded=0;orthogonalLoop=1;jettySize=auto;html=1;entryX=0;entryY=0.5;entryDx=0;entryDy=0;entryPerimeter=0;" edge="1" parent="1" source="g9-zvi1oiFgz5YpsBdWm-44" target="g9-zvi1oiFgz5YpsBdWm-45">
          <mxGeometry relative="1" as="geometry" />
        </mxCell>
        <mxCell id="g9-zvi1oiFgz5YpsBdWm-49" value="session id, session secret, user id, tstamp" style="edgeLabel;html=1;align=center;verticalAlign=middle;resizable=0;points=[];" vertex="1" connectable="0" parent="g9-zvi1oiFgz5YpsBdWm-48">
          <mxGeometry x="-0.05" y="3" relative="1" as="geometry">
            <mxPoint as="offset" />
          </mxGeometry>
        </mxCell>
        <mxCell id="g9-zvi1oiFgz5YpsBdWm-50" value="" style="endArrow=classic;html=1;rounded=0;" edge="1" parent="1">
          <mxGeometry width="50" height="50" relative="1" as="geometry">
            <mxPoint x="520" y="1320" as="sourcePoint" />
            <mxPoint x="280" y="1320" as="targetPoint" />
          </mxGeometry>
        </mxCell>
        <mxCell id="g9-zvi1oiFgz5YpsBdWm-51" value="session id, nonce2, user data" style="edgeLabel;html=1;align=center;verticalAlign=middle;resizable=0;points=[];" vertex="1" connectable="0" parent="g9-zvi1oiFgz5YpsBdWm-50">
          <mxGeometry x="-0.2" y="2" relative="1" as="geometry">
            <mxPoint x="-24" y="-2" as="offset" />
          </mxGeometry>
        </mxCell>
        <mxCell id="g9-zvi1oiFgz5YpsBdWm-53" value="&lt;div style=&quot;text-align: left;&quot;&gt;&lt;div&gt;&lt;br&gt;&lt;/div&gt;&lt;ul&gt;&lt;li&gt;&lt;span style=&quot;background-color: initial;&quot;&gt;session secret = hmac-sha256(key=salted password, message = full nonce + nonce2&lt;/span&gt;&lt;/li&gt;&lt;/ul&gt;&lt;/div&gt;&lt;div style=&quot;text-align: left;&quot;&gt;&lt;span style=&quot;background-color: initial;&quot;&gt;&lt;br&gt;&lt;/span&gt;&lt;/div&gt;" style="rounded=0;whiteSpace=wrap;html=1;" vertex="1" parent="1">
          <mxGeometry x="120" y="1400" width="320" height="120" as="geometry" />
        </mxCell>
        <mxCell id="g9-zvi1oiFgz5YpsBdWm-54" value="local storage" style="shape=cylinder3;whiteSpace=wrap;html=1;boundedLbl=1;backgroundOutline=1;size=15;" vertex="1" parent="1">
          <mxGeometry x="50" y="1620" width="60" height="80" as="geometry" />
        </mxCell>
        <mxCell id="g9-zvi1oiFgz5YpsBdWm-56" style="edgeStyle=orthogonalEdgeStyle;rounded=0;orthogonalLoop=1;jettySize=auto;html=1;entryX=0.5;entryY=0;entryDx=0;entryDy=0;entryPerimeter=0;exitX=0.25;exitY=1;exitDx=0;exitDy=0;" edge="1" parent="1" source="g9-zvi1oiFgz5YpsBdWm-53" target="g9-zvi1oiFgz5YpsBdWm-54">
          <mxGeometry relative="1" as="geometry" />
        </mxCell>
        <mxCell id="g9-zvi1oiFgz5YpsBdWm-57" value="user data, session id, session secret" style="edgeLabel;html=1;align=center;verticalAlign=middle;resizable=0;points=[];" vertex="1" connectable="0" parent="g9-zvi1oiFgz5YpsBdWm-56">
          <mxGeometry x="0.4222" y="1" relative="1" as="geometry">
            <mxPoint x="76" y="9" as="offset" />
          </mxGeometry>
        </mxCell>
        <mxCell id="g9-zvi1oiFgz5YpsBdWm-58" value="user data = user_id dan full na,me" style="text;html=1;align=center;verticalAlign=middle;whiteSpace=wrap;rounded=0;" vertex="1" parent="1">
          <mxGeometry x="310" y="1650" width="130" height="30" as="geometry" />
        </mxCell>
      </root>
    </mxGraphModel>
  </diagram>
</mxfile>
